{
  "asset": {
    "version": "2.0",
    "generator": "gltfeditor.com"
  },
  "buffers": [
    {
      "uri": "untitled.bin",
      "byteLength": 480
    },
    {
      "uri": "untitled_1.bin",
      "byteLength": 72
    },
    {
      "uri": "untitled_2.bin",
      "byteLength": 480
    },
    {
      "uri": "untitled_3.bin",
      "byteLength": 72
    },
    {
      "uri": "untitled_4.bin",
      "byteLength": 480
    },
    {
      "uri": "untitled_5.bin",
      "byteLength": 72
    },
    {
      "uri": "untitled_6.bin",
      "byteLength": 480
    },
    {
      "uri": "untitled_7.bin",
      "byteLength": 72
    },
    {
      "uri": "untitled_8.bin",
      "byteLength": 480
    },
    {
      "uri": "untitled_9.bin",
      "byteLength": 72
    },
    {
      "uri": "untitled_10.bin",
      "byteLength": 480
    },
    {
      "uri": "untitled_11.bin",
      "byteLength": 72
    },
    {
      "uri": "untitled_12.bin",
      "byteLength": 480
    },
    {
      "uri": "untitled_13.bin",
      "byteLength": 72
    },
    {
      "uri": "untitled_14.bin",
      "byteLength": 480
    },
    {
      "uri": "untitled_15.bin",
      "byteLength": 72
    },
    {
      "uri": "untitled_16.bin",
      "byteLength": 123008
    },
    {
      "uri": "untitled_17.bin",
      "byteLength": 11532
    }
  ],
  "bufferViews": [
    {
      "buffer": 0,
      "byteLength": 480,
      "byteOffset": 0,
      "target": 34962,
      "byteStride": 20
    },
    {
      "buffer": 1,
      "byteLength": 72,
      "byteOffset": 0,
      "target": 34963
    },
    {
      "buffer": 2,
      "byteLength": 480,
      "byteOffset": 0,
      "target": 34962,
      "byteStride": 20
    },
    {
      "buffer": 3,
      "byteLength": 72,
      "byteOffset": 0,
      "target": 34963
    },
    {
      "buffer": 4,
      "byteLength": 480,
      "byteOffset": 0,
      "target": 34962,
      "byteStride": 20
    },
    {
      "buffer": 5,
      "byteLength": 72,
      "byteOffset": 0,
      "target": 34963
    },
    {
      "buffer": 6,
      "byteLength": 480,
      "byteOffset": 0,
      "target": 34962,
      "byteStride": 20
    },
    {
      "buffer": 7,
      "byteLength": 72,
      "byteOffset": 0,
      "target": 34963
    },
    {
      "buffer": 8,
      "byteLength": 480,
      "byteOffset": 0,
      "target": 34962,
      "byteStride": 20
    },
    {
      "buffer": 9,
      "byteLength": 72,
      "byteOffset": 0,
      "target": 34963
    },
    {
      "buffer": 10,
      "byteLength": 480,
      "byteOffset": 0,
      "target": 34962,
      "byteStride": 20
    },
    {
      "buffer": 11,
      "byteLength": 72,
      "byteOffset": 0,
      "target": 34963
    },
    {
      "buffer": 12,
      "byteLength": 480,
      "byteOffset": 0,
      "target": 34962,
      "byteStride": 20
    },
    {
      "buffer": 13,
      "byteLength": 72,
      "byteOffset": 0,
      "target": 34963
    },
    {
      "buffer": 14,
      "byteLength": 480,
      "byteOffset": 0,
      "target": 34962,
      "byteStride": 20
    },
    {
      "buffer": 15,
      "byteLength": 72,
      "byteOffset": 0,
      "target": 34963
    },
    {
      "buffer": 16,
      "byteLength": 123008,
      "byteOffset": 0,
      "target": 34962,
      "byteStride": 32
    },
    {
      "buffer": 17,
      "byteLength": 11532,
      "byteOffset": 0,
      "target": 34963
    }
  ],
  "accessors": [
    {
      "bufferView": 0,
      "byteOffset": 0,
      "componentType": 5126,
      "normalized": false,
      "count": 24,
      "max": [
        1,
        1,
        1
      ],
      "min": [
        -1,
        -1,
        -1
      ],
      "type": "VEC3"
    },
    {
      "bufferView": 0,
      "byteOffset": 12,
      "componentType": 5126,
      "normalized": false,
      "count": 24,
      "max": [
        1,
        1
      ],
      "min": [
        0,
        0
      ],
      "type": "VEC2"
    },
    {
      "bufferView": 1,
      "byteOffset": 0,
      "componentType": 5123,
      "normalized": false,
      "count": 36,
      "max": [
        23
      ],
      "min": [
        0
      ],
      "type": "SCALAR"
    },
    {
      "bufferView": 2,
      "byteOffset": 0,
      "componentType": 5126,
      "normalized": false,
      "count": 24,
      "max": [
        1,
        1,
        1
      ],
      "min": [
        -1,
        -1,
        -1
      ],
      "type": "VEC3"
    },
    {
      "bufferView": 2,
      "byteOffset": 12,
      "componentType": 5126,
      "normalized": false,
      "count": 24,
      "max": [
        1,
        1
      ],
      "min": [
        0,
        0
      ],
      "type": "VEC2"
    },
    {
      "bufferView": 3,
      "byteOffset": 0,
      "componentType": 5123,
      "normalized": false,
      "count": 36,
      "max": [
        23
      ],
      "min": [
        0
      ],
      "type": "SCALAR"
    },
    {
      "bufferView": 4,
      "byteOffset": 0,
      "componentType": 5126,
      "normalized": false,
      "count": 24,
      "max": [
        1,
        1,
        1
      ],
      "min": [
        -1,
        -1,
        -1
      ],
      "type": "VEC3"
    },
    {
      "bufferView": 4,
      "byteOffset": 12,
      "componentType": 5126,
      "normalized": false,
      "count": 24,
      "max": [
        1,
        1
      ],
      "min": [
        0,
        0
      ],
      "type": "VEC2"
    },
    {
      "bufferView": 5,
      "byteOffset": 0,
      "componentType": 5123,
      "normalized": false,
      "count": 36,
      "max": [
        23
      ],
      "min": [
        0
      ],
      "type": "SCALAR"
    },
    {
      "bufferView": 6,
      "byteOffset": 0,
      "componentType": 5126,
      "normalized": false,
      "count": 24,
      "max": [
        1,
        1,
        1
      ],
      "min": [
        -1,
        -1,
        -1
      ],
      "type": "VEC3"
    },
    {
      "bufferView": 6,
      "byteOffset": 12,
      "componentType": 5126,
      "normalized": false,
      "count": 24,
      "max": [
        1,
        1
      ],
      "min": [
        0,
        0
      ],
      "type": "VEC2"
    },
    {
      "bufferView": 7,
      "byteOffset": 0,
      "componentType": 5123,
      "normalized": false,
      "count": 36,
      "max": [
        23
      ],
      "min": [
        0
      ],
      "type": "SCALAR"
    },
    {
      "bufferView": 8,
      "byteOffset": 0,
      "componentType": 5126,
      "normalized": false,
      "count": 24,
      "max": [
        1,
        1,
        1
      ],
      "min": [
        -1,
        -1,
        -1
      ],
      "type": "VEC3"
    },
    {
      "bufferView": 8,
      "byteOffset": 12,
      "componentType": 5126,
      "normalized": false,
      "count": 24,
      "max": [
        1,
        1
      ],
      "min": [
        0,
        0
      ],
      "type": "VEC2"
    },
    {
      "bufferView": 9,
      "byteOffset": 0,
      "componentType": 5123,
      "normalized": false,
      "count": 36,
      "max": [
        23
      ],
      "min": [
        0
      ],
      "type": "SCALAR"
    },
    {
      "bufferView": 10,
      "byteOffset": 0,
      "componentType": 5126,
      "normalized": false,
      "count": 24,
      "max": [
        1,
        1,
        1
      ],
      "min": [
        -1,
        -1,
        -1
      ],
      "type": "VEC3"
    },
    {
      "bufferView": 10,
      "byteOffset": 12,
      "componentType": 5126,
      "normalized": false,
      "count": 24,
      "max": [
        1,
        1
      ],
      "min": [
        0,
        0
      ],
      "type": "VEC2"
    },
    {
      "bufferView": 11,
      "byteOffset": 0,
      "componentType": 5123,
      "normalized": false,
      "count": 36,
      "max": [
        23
      ],
      "min": [
        0
      ],
      "type": "SCALAR"
    },
    {
      "bufferView": 12,
      "byteOffset": 0,
      "componentType": 5126,
      "normalized": false,
      "count": 24,
      "max": [
        1,
        1,
        1
      ],
      "min": [
        -1,
        -1,
        -1
      ],
      "type": "VEC3"
    },
    {
      "bufferView": 12,
      "byteOffset": 12,
      "componentType": 5126,
      "normalized": false,
      "count": 24,
      "max": [
        1,
        1
      ],
      "min": [
        0,
        0
      ],
      "type": "VEC2"
    },
    {
      "bufferView": 13,
      "byteOffset": 0,
      "componentType": 5123,
      "normalized": false,
      "count": 36,
      "max": [
        23
      ],
      "min": [
        0
      ],
      "type": "SCALAR"
    },
    {
      "bufferView": 14,
      "byteOffset": 0,
      "componentType": 5126,
      "normalized": false,
      "count": 24,
      "max": [
        1,
        1,
        1
      ],
      "min": [
        -1,
        -1,
        -1
      ],
      "type": "VEC3"
    },
    {
      "bufferView": 14,
      "byteOffset": 12,
      "componentType": 5126,
      "normalized": false,
      "count": 24,
      "max": [
        1,
        1
      ],
      "min": [
        0,
        0
      ],
      "type": "VEC2"
    },
    {
      "bufferView": 15,
      "byteOffset": 0,
      "componentType": 5123,
      "normalized": false,
      "count": 36,
      "max": [
        23
      ],
      "min": [
        0
      ],
      "type": "SCALAR"
    },
    {
      "bufferView": 16,
      "byteOffset": 0,
      "componentType": 5126,
      "normalized": false,
      "count": 3844,
      "max": [
        1,
        1,
        0.9945219159126282
      ],
      "min": [
        -1,
        -1,
        -0.9945219159126282
      ],
      "type": "VEC3"
    },
    {
      "bufferView": 16,
      "byteOffset": 12,
      "componentType": 5126,
      "normalized": false,
      "count": 3844,
      "max": [
        1,
        1,
        0.9945219159126282
      ],
      "min": [
        -1,
        -1,
        -0.9945219159126282
      ],
      "type": "VEC3"
    },
    {
      "bufferView": 16,
      "byteOffset": 24,
      "componentType": 5126,
      "normalized": false,
      "count": 3844,
      "max": [
        1.0333333015441895,
        1.0333333015441895
      ],
      "min": [
        0,
        0
      ],
      "type": "VEC2"
    },
    {
      "bufferView": 17,
      "byteOffset": 0,
      "componentType": 5123,
      "normalized": false,
      "count": 5766,
      "max": [
        3843
      ],
      "min": [
        0
      ],
      "type": "SCALAR"
    }
  ],
  "scene": 0,
  "scenes": [
    {
      "nodes": [
        0,
        1,
        2,
        3,
        4,
        5,
        6,
        7,
        8,
        9,
        10,
        11,
        12,
        13,
        14,
        15,
        16,
        17,
        18,
        19,
        20,
        21,
        22
      ],
      "name": "untitled"
    }
  ],
  "nodes": [
    {
      "name": "Cube",
      "matrix": [
        4,
        0,
        0,
        0,
        0,
        0.4000000059604645,
        0,
        0,
        0,
        0,
        4,
        0,
        0,
        0,
        0,
        1
      ],
      "mesh": 0
    },
    {
      "name": "Cube",
      "matrix": [
        0.029999999329447746,
        0,
        0,
        0,
        0,
        0.009999999776482582,
        0,
        0,
        0,
        0,
        4,
        0,
        0,
        0.4000000059604645,
        0,
        1
      ],
      "mesh": 1
    },
    {
      "name": "Cube",
      "matrix": [
        0.029999999329447746,
        0,
        0,
        0,
        0,
        0.009999999776482582,
        0,
        0,
        0,
        0,
        4,
        0,
        1,
        0.4000000059604645,
        0,
        1
      ],
      "mesh": 2
    },
    {
      "name": "Cube",
      "matrix": [
        0.029999999329447746,
        0,
        0,
        0,
        0,
        0.009999999776482582,
        0,
        0,
        0,
        0,
        4,
        0,
        2,
        0.4000000059604645,
        0,
        1
      ],
      "mesh": 2
    },
    {
      "name": "Cube",
      "matrix": [
        0.029999999329447746,
        0,
        0,
        0,
        0,
        0.009999999776482582,
        0,
        0,
        0,
        0,
        4,
        0,
        -3,
        0.4000000059604645,
        0,
        1
      ],
      "mesh": 2
    },
    {
      "name": "Cube",
      "matrix": [
        0.029999999329447746,
        0,
        0,
        0,
        0,
        0.009999999776482582,
        0,
        0,
        0,
        0,
        4,
        0,
        -2,
        0.4000000059604645,
        0,
        1
      ],
      "mesh": 2
    },
    {
      "name": "Cube",
      "matrix": [
        0.029999999329447746,
        0,
        0,
        0,
        0,
        0.009999999776482582,
        0,
        0,
        0,
        0,
        4,
        0,
        -1,
        0.4000000059604645,
        0,
        1
      ],
      "mesh": 2
    },
    {
      "name": "Cube",
      "matrix": [
        0.029999999329447746,
        0,
        0,
        0,
        0,
        0.009999999776482582,
        0,
        0,
        0,
        0,
        4,
        0,
        3,
        0.4000000059604645,
        0,
        1
      ],
      "mesh": 2
    },
    {
      "name": "Cube",
      "matrix": [
        4,
        0,
        0,
        0,
        0,
        0.009999999776482582,
        0,
        0,
        0,
        0,
        0.029999999329447746,
        0,
        0,
        0.4000000059604645,
        0,
        1
      ],
      "mesh": 3
    },
    {
      "name": "Cube",
      "matrix": [
        4,
        0,
        0,
        0,
        0,
        0.009999999776482582,
        0,
        0,
        0,
        0,
        0.029999999329447746,
        0,
        0,
        0.4000000059604645,
        2,
        1
      ],
      "mesh": 3
    },
    {
      "name": "Cube",
      "matrix": [
        4,
        0,
        0,
        0,
        0,
        0.009999999776482582,
        0,
        0,
        0,
        0,
        0.029999999329447746,
        0,
        0,
        0.4000000059604645,
        1,
        1
      ],
      "mesh": 3
    },
    {
      "name": "Cube",
      "matrix": [
        4,
        0,
        0,
        0,
        0,
        0.009999999776482582,
        0,
        0,
        0,
        0,
        0.029999999329447746,
        0,
        0,
        0.4000000059604645,
        -1,
        1
      ],
      "mesh": 3
    },
    {
      "name": "Cube",
      "matrix": [
        4,
        0,
        0,
        0,
        0,
        0.009999999776482582,
        0,
        0,
        0,
        0,
        0.029999999329447746,
        0,
        0,
        0.4000000059604645,
        -2,
        1
      ],
      "mesh": 3
    },
    {
      "name": "Cube",
      "matrix": [
        4,
        0,
        0,
        0,
        0,
        0.009999999776482582,
        0,
        0,
        0,
        0,
        0.029999999329447746,
        0,
        0,
        0.4000000059604645,
        -3,
        1
      ],
      "mesh": 3
    },
    {
      "name": "Cube",
      "matrix": [
        4,
        0,
        0,
        0,
        0,
        0.009999999776482582,
        0,
        0,
        0,
        0,
        0.029999999329447746,
        0,
        0,
        0.4000000059604645,
        3,
        1
      ],
      "mesh": 3
    },
    {
      "name": "Cube",
      "matrix": [
        4.150000095367432,
        0,
        0,
        0,
        0,
        0.5,
        0,
        0,
        0,
        0,
        0.20000000298023224,
        0,
        0,
        0,
        4.199999809265137,
        1
      ],
      "mesh": 4
    },
    {
      "name": "Cube",
      "matrix": [
        4.150000095367432,
        0,
        0,
        0,
        0,
        0.5,
        0,
        0,
        0,
        0,
        0.20000000298023224,
        0,
        0,
        0,
        -4.199999809265137,
        1
      ],
      "mesh": 5
    },
    {
      "name": "Cube",
      "matrix": [
        0.20000000298023224,
        0,
        0,
        0,
        0,
        0.5,
        0,
        0,
        0,
        0,
        4.400000095367432,
        0,
        4.199999809265137,
        0,
        0,
        1
      ],
      "mesh": 6
    },
    {
      "name": "Cube",
      "matrix": [
        0.20000000298023224,
        0,
        0,
        0,
        0,
        0.5,
        0,
        0,
        0,
        0,
        4.400000095367432,
        0,
        -4.199999809265137,
        0,
        0,
        1
      ],
      "mesh": 7
    },
    {
      "name": "Sphere",
      "matrix": [
        0.10000000149011612,
        0,
        0,
        0,
        0,
        0.10000000149011612,
        0,
        0,
        0,
        0,
        0.10000000149011612,
        0,
        2,
        0.4000000059604645,
        2,
        1
      ],
      "mesh": 8
    },
    {
      "name": "Sphere",
      "matrix": [
        0.10000000149011612,
        0,
        0,
        0,
        0,
        0.10000000149011612,
        0,
        0,
        0,
        0,
        0.10000000149011612,
        0,
        -2,
        0.4000000059604645,
        2,
        1
      ],
      "mesh": 9
    },
    {
      "name": "Sphere",
      "matrix": [
        0.10000000149011612,
        0,
        0,
        0,
        0,
        0.10000000149011612,
        0,
        0,
        0,
        0,
        0.10000000149011612,
        0,
        2,
        0.4000000059604645,
        -2,
        1
      ],
      "mesh": 10
    },
    {
      "name": "Sphere",
      "matrix": [
        0.10000000149011612,
        0,
        0,
        0,
        0,
        0.10000000149011612,
        0,
        0,
        0,
        0,
        0.10000000149011612,
        0,
        -2,
        0.4000000059604645,
        -2,
        1
      ],
      "mesh": 11
    }
  ],
  "meshes": [
    {
      "primitives": [
        {
          "attributes": {
            "POSITION": 0,
            "TEXCOORD_0": 1
          },
          "material": 0,
          "mode": 4,
          "indices": 2
        }
      ]
    },
    {
      "primitives": [
        {
          "attributes": {
            "POSITION": 3,
            "TEXCOORD_0": 4
          },
          "material": 1,
          "mode": 4,
          "indices": 5
        }
      ]
    },
    {
      "primitives": [
        {
          "attributes": {
            "POSITION": 6,
            "TEXCOORD_0": 7
          },
          "material": 2,
          "mode": 4,
          "indices": 8
        }
      ]
    },
    {
      "primitives": [
        {
          "attributes": {
            "POSITION": 9,
            "TEXCOORD_0": 10
          },
          "material": 3,
          "mode": 4,
          "indices": 11
        }
      ]
    },
    {
      "primitives": [
        {
          "attributes": {
            "POSITION": 12,
            "TEXCOORD_0": 13
          },
          "material": 4,
          "mode": 4,
          "indices": 14
        }
      ]
    },
    {
      "primitives": [
        {
          "attributes": {
            "POSITION": 15,
            "TEXCOORD_0": 16
          },
          "material": 5,
          "mode": 4,
          "indices": 17
        }
      ]
    },
    {
      "primitives": [
        {
          "attributes": {
            "POSITION": 18,
            "TEXCOORD_0": 19
          },
          "material": 6,
          "mode": 4,
          "indices": 20
        }
      ]
    },
    {
      "primitives": [
        {
          "attributes": {
            "POSITION": 21,
            "TEXCOORD_0": 22
          },
          "material": 7,
          "mode": 4,
          "indices": 23
        }
      ]
    },
    {
      "primitives": [
        {
          "attributes": {
            "POSITION": 24,
            "NORMAL": 25,
            "TEXCOORD_0": 26
          },
          "material": 8,
          "mode": 4,
          "indices": 27
        }
      ]
    },
    {
      "primitives": [
        {
          "attributes": {
            "POSITION": 24,
            "NORMAL": 25,
            "TEXCOORD_0": 26
          },
          "material": 9,
          "mode": 4,
          "indices": 27
        }
      ]
    },
    {
      "primitives": [
        {
          "attributes": {
            "POSITION": 24,
            "NORMAL": 25,
            "TEXCOORD_0": 26
          },
          "material": 10,
          "mode": 4,
          "indices": 27
        }
      ]
    },
    {
      "primitives": [
        {
          "attributes": {
            "POSITION": 24,
            "NORMAL": 25,
            "TEXCOORD_0": 26
          },
          "material": 11,
          "mode": 4,
          "indices": 27
        }
      ]
    }
  ],
  "materials": [
    {
      "pbrMetallicRoughness": {
        "baseColorFactor": [
          0,
          1,
          0,
          1
        ],
        "metallicFactor": 1,
        "roughnessFactor": 1
      },
      "emissiveFactor": [
        0,
        1,
        0
      ],
      "alphaMode": "OPAQUE",
      "doubleSided": false
    },
    {
      "pbrMetallicRoughness": {
        "baseColorFactor": [
          0,
          0,
          0,
          1
        ],
        "metallicFactor": 1,
        "roughnessFactor": 1
      },
      "emissiveFactor": [
        0,
        0,
        0
      ],
      "alphaMode": "OPAQUE",
      "doubleSided": false
    },
    {
      "pbrMetallicRoughness": {
        "baseColorFactor": [
          0,
          0,
          0,
          1
        ],
        "metallicFactor": 1,
        "roughnessFactor": 1
      },
      "emissiveFactor": [
        0,
        0,
        0
      ],
      "alphaMode": "OPAQUE",
      "doubleSided": false
    },
    {
      "pbrMetallicRoughness": {
        "baseColorFactor": [
          0,
          0,
          0,
          1
        ],
        "metallicFactor": 1,
        "roughnessFactor": 1
      },
      "emissiveFactor": [
        0,
        0,
        0
      ],
      "alphaMode": "OPAQUE",
      "doubleSided": false
    },
    {
      "pbrMetallicRoughness": {
        "baseColorFactor": [
          0,
          0,
          0,
          1
        ],
        "metallicFactor": 1,
        "roughnessFactor": 1
      },
      "emissiveFactor": [
        0,
        0,
        0
      ],
      "alphaMode": "OPAQUE",
      "doubleSided": false
    },
    {
      "pbrMetallicRoughness": {
        "baseColorFactor": [
          0,
          0,
          0,
          1
        ],
        "metallicFactor": 1,
        "roughnessFactor": 1
      },
      "emissiveFactor": [
        0,
        0,
        0
      ],
      "alphaMode": "OPAQUE",
      "doubleSided": false
    },
    {
      "pbrMetallicRoughness": {
        "baseColorFactor": [
          0,
          0,
          0,
          1
        ],
        "metallicFactor": 1,
        "roughnessFactor": 1
      },
      "emissiveFactor": [
        0,
        0,
        0
      ],
      "alphaMode": "OPAQUE",
      "doubleSided": false
    },
    {
      "pbrMetallicRoughness": {
        "baseColorFactor": [
          0,
          0,
          0,
          1
        ],
        "metallicFactor": 1,
        "roughnessFactor": 1
      },
      "emissiveFactor": [
        0,
        0,
        0
      ],
      "alphaMode": "OPAQUE",
      "doubleSided": false
    },
    {
      "pbrMetallicRoughness": {
        "baseColorFactor": [
          0,
          0,
          0,
          1
        ],
        "metallicFactor": 1,
        "roughnessFactor": 1
      },
      "emissiveFactor": [
        0,
        0,
        0
      ],
      "alphaMode": "OPAQUE",
      "doubleSided": false
    },
    {
      "pbrMetallicRoughness": {
        "baseColorFactor": [
          0,
          0,
          0,
          1
        ],
        "metallicFactor": 1,
        "roughnessFactor": 1
      },
      "emissiveFactor": [
        0,
        0,
        0
      ],
      "alphaMode": "OPAQUE",
      "doubleSided": false
    },
    {
      "pbrMetallicRoughness": {
        "baseColorFactor": [
          0,
          0,
          0,
          1
        ],
        "metallicFactor": 1,
        "roughnessFactor": 1
      },
      "emissiveFactor": [
        0,
        0,
        0
      ],
      "alphaMode": "OPAQUE",
      "doubleSided": false
    },
    {
      "pbrMetallicRoughness": {
        "baseColorFactor": [
          0,
          0,
          0,
          1
        ],
        "metallicFactor": 1,
        "roughnessFactor": 1
      },
      "emissiveFactor": [
        0,
        0,
        0
      ],
      "alphaMode": "OPAQUE",
      "doubleSided": false
    }
  ]
}